<svg xmlns="http://www.w3.org/2000/svg" viewBox="0 0 32 32">
  <defs>
    <linearGradient id="g" x1="0" y1="0" x2="0" y2="1">
      <stop offset="0%" stop-color="#00d4ff"/>
      <stop offset="100%" stop-color="#0066cc"/>
    </linearGradient>
  </defs>
  <path d="M16 2L4 8v8c0 7.7 5.1 14.5 12 16 6.9-1.5 12-8.3 12-16V8L16 2z" fill="url(#g)" opacity="0.9"/>
  <path d="M16 5L7 9.5v6.5c0 6.2 3.8 11.5 9 13 5.2-1.5 9-6.8 9-13V9.5L16 5z" fill="#04080f"/>
  <path d="M16 8l-6 3v5c0 4.5 2.5 8.5 6 10 3.5-1.5 6-5.5 6-10v-5l-6-3z" fill="none" stroke="#00d4ff" stroke-width="0.7" opacity="0.6"/>
  <text x="16" y="21" text-anchor="middle" font-family="Arial,sans-serif" font-weight="bold" font-size="10" fill="#00d4ff">V</text>
</svg>
